#!OML:ASF H:\Terrain\Patient Classification 1\Walking\liu\liu.ASF
:FULLY-SPECIFIED
:DEGREES
421
root 11.101530 18.429840 25.708651 8.980543 0.374087 -5.200173
lowerback -9.651565 3.039454 1.346851
upperback -1.979406 3.839143 2.390377
thorax 3.280376 1.915903 2.145396
lowerneck -21.435478 -7.652491 -16.135241
upperneck 24.115742 -9.904884 15.705470
head 12.953711 -4.018817 6.978873
rclavicle -0.000000 -0.000000
rhumerus -39.798882 11.092180 -97.544487
rradius 36.334538
rwrist -15.513189
rhand -31.943119 -27.075071
rfingers 7.837522
rthumb -2.628560 -60.038002
lclavicle -0.000000 -0.000000
lhumerus -56.132339 -7.866760 101.837448
lradius 24.697420
lwrist 0.973080
lhand -7.905953 -24.797190
lfingers 7.837522
lthumb 20.559771 7.237065
rfemur 27.346331 3.330272 31.151560
rtibia 0.000000
rfoot 10.359811 4.301561
rtoes -24.538252
lfemur -48.542450 2.713733 -20.535131
ltibia 37.898739
lfoot 1.242109 8.557627
ltoes 2.112935
422
root 11.134530 18.453489 25.883989 8.936983 0.536727 -5.141620
lowerback -9.556184 2.903439 1.417240
upperback -2.080023 3.658831 2.329789
thorax 3.134978 1.827386 2.014738
lowerneck -21.698490 -7.785415 -16.058130
upperneck 24.534182 -10.084207 15.527710
head 13.182730 -4.102923 6.878608
rclavicle -0.000000 -0.000000
rhumerus -40.544678 11.016500 -97.898682
rradius 35.850651
rwrist -15.860460
rhand -31.423370 -28.403431
rfingers 7.837522
rthumb -2.126597 -61.371532
lclavicle -0.000000 -0.000000
lhumerus -55.507870 -7.162980 101.068985
lradius 24.080872
lwrist -0.252799
lhand -8.195517 -25.158430
lfingers 7.837522
lthumb 20.281250 6.902379
rfemur 24.421980 3.061146 30.805611
rtibia 6.355173
rfoot 10.539518 4.441723
rtoes -21.301720
lfemur -48.170319 2.337544 -20.589470
ltibia 38.555000
lfoot 0.262472 8.485213
ltoes 2.042876
423
root 11.174570 18.500679 26.070110 8.839149 0.508909 -4.520296
lowerback -9.272471 2.756468 0.890435
upperback -2.324927 3.526501 2.205346
thorax 2.705417 1.761111 2.142954
lowerneck -20.916170 -7.410843 -15.921840
upperneck 24.373911 -9.622195 15.332020
head 12.865050 -3.935591 6.858929
rclavicle -0.000000 -0.000000
rhumerus -41.555691 10.712779 -97.931900
rradius 35.528790
rwrist -15.293960
rhand -29.902620 -31.704309
rfingers 7.837522
rthumb -0.657832 -64.681099
lclavicle -0.000000 -0.000000
lhumerus -55.124298 -5.859315 100.060181
lradius 23.579161
lwrist -1.965106
lhand -7.293770 -24.621519
lfingers 7.837522
lthumb 21.148600 7.355084
rfemur 21.461330 2.942852 29.552931
rtibia 12.740200
rfoot 11.516780 3.478123
rtoes -8.530434
lfemur -47.392624 1.975160 -21.285221
ltibia 38.798542
lfoot -0.582589 8.379998
ltoes 3.776762
424
root 11.215820 18.534451 26.250071 8.670684 0.290456 -3.457586
lowerback -8.050505 2.844292 0.092244
upperback -3.269838 3.752045 1.817981
thorax 1.025738 1.886478 2.115377
lowerneck -19.568340 -7.251618 -16.219721
upperneck 24.504921 -9.537770 15.447300
head 12.653629 -3.961815 6.988432
rclavicle -0.000000 -0.000000
rhumerus -43.824883 9.667350 -97.944885
rradius 35.461357
rwrist -14.464670
rhand -28.688549 -34.838982
rfingers 7.837522
rthumb 0.514841 -67.816101
lclavicle -0.000000 -0.000000
lhumerus -55.870102 -5.631593 99.664841
lradius 23.214729
lwrist -2.777797
lhand -5.947799 -23.737339
lfingers 7.837522
lthumb 22.442421 8.105680
rfemur 19.199289 1.610180 27.716921
rtibia 17.757080
rfoot 12.536591 5.467803
rtoes -15.242480
lfemur -46.385239 1.647008 -22.473440
ltibia 38.781490
lfoot -1.292478 8.551818
ltoes 4.432703
425
root 11.253440 18.566021 26.429920 8.638278 -0.009793 -2.877622
lowerback -8.261671 2.935856 -0.246968
upperback -3.251765 3.897795 1.610521
thorax 1.149082 1.959221 2.114585
lowerneck -19.362640 -7.252586 -16.264929
upperneck 24.405920 -9.504011 15.302760
head 12.563869 -3.974069 6.941748
rclavicle 0.000000 -0.000000
rhumerus -44.439671 9.146522 -97.857315
rradius 34.973839
rwrist -14.220140
rhand -28.728922 -34.060619
rfingers 7.837522
rthumb 0.475780 -67.037849
lclavicle 0.000000 -0.000000
lhumerus -54.999451 -5.460180 99.357391
lradius 22.798712
lwrist -3.131249
lhand -5.511506 -23.426590
lfingers 7.837522
lthumb 22.861740 8.371066
rfemur 17.145920 0.930543 26.518690
rtibia 22.240570
rfoot 13.086149 6.584787
rtoes -17.822639
lfemur -45.458599 1.690568 -23.232660
ltibia 38.591301
lfoot -1.900844 8.648387
ltoes 2.437809
426
root 11.292600 18.593960 26.609659 8.646583 -0.401921 -2.354869
lowerback -8.679891 2.989668 -0.594308
upperback -2.612962 3.989007 1.472845
thorax 2.023516 1.994047 2.219283
lowerneck -20.893730 -7.441995 -16.216311
upperneck 24.454870 -9.522381 15.106190
head 12.876270 -3.942906 6.841274
rclavicle -0.000000 -0.000000
rhumerus -43.687160 9.105427 -97.673286
rradius 34.330120
rwrist -14.370950
rhand -29.327980 -31.845110
rfingers 7.837522
rthumb -0.102825 -64.822891
lclavicle -0.000000 -0.000000
lhumerus -52.893059 -4.973441 98.928833
lradius 22.385221
lwrist -3.675760
lhand -6.242621 -23.641531
lfingers 7.837522
lthumb 22.159168 8.231630
rfemur 15.255460 0.509227 25.406481
rtibia 26.392962
rfoot 14.112230 6.743473
rtoes -16.242380
lfemur -44.604557 1.977239 -24.017290
ltibia 38.427181
lfoot -2.491665 8.548695
ltoes 3.030489
427
root 11.325820 18.627840 26.772240 8.675150 -0.770792 -1.922217
lowerback -8.668869 2.945261 -0.959551
upperback -2.542804 3.959912 1.387727
thorax 2.073797 1.978207 2.334618
lowerneck -21.015499 -7.387369 -16.285170
upperneck 24.244989 -9.389797 15.135010
head 12.802680 -3.881174 6.877761
rclavicle -0.000000 0.000000
rhumerus -44.036194 9.359054 -97.844452
rradius 34.100220
rwrist -14.461590
rhand -28.915260 -32.715870
rfingers 7.837522
rthumb 0.295822 -65.693428
lclavicle -0.000000 0.000000
lhumerus -51.835079 -4.224770 98.419861
lradius 21.965570
lwrist -4.456837
lhand -7.865550 -24.540449
lfingers 7.837522
lthumb 20.598711 7.490054
rfemur 13.347950 0.261014 24.494579
rtibia 30.333160
rfoot 14.987390 7.257492
rtoes -16.535200
lfemur -43.847980 2.269135 -24.658041
ltibia 38.292542
lfoot -3.117499 8.433216
ltoes 5.453800
428
root 11.351230 18.661388 26.925360 8.767165 -1.058979 -1.770879
lowerback -8.421678 2.924438 -1.045877
upperback -2.864037 3.941454 1.310364
thorax 1.606033 1.976205 2.276846
lowerneck -20.722460 -7.217683 -15.938010
upperneck 24.395142 -9.192876 14.702270
head 12.726230 -3.822522 6.689034
rclavicle 0.000000 -0.000000
rhumerus -44.933571 9.621601 -98.295448
rradius 33.759880
rwrist -14.677300
rhand -28.880390 -34.088341
rfingers 7.837522
rthumb 0.329513 -67.065788
lclavicle 0.000000 -0.000000
lhumerus -51.477577 -3.846216 98.010880
lradius 21.637001
lwrist -5.050078
lhand -8.838291 -25.253580
lfingers 7.837522
lthumb 19.662830 6.864737
rfemur 11.411510 0.179434 24.003540
rtibia 34.065792
rfoot 14.778501 8.897504
rtoes -20.319309
lfemur -43.216911 2.596715 -24.957241
ltibia 38.132710
lfoot -3.748624 8.318168
ltoes 5.779972
429
root 11.379390 18.691309 27.087608 8.759850 -1.315952 -1.455762
lowerback -8.278127 2.925626 -1.232099
upperback -3.258310 3.958856 1.220923
thorax 1.113486 1.993475 2.268893
lowerneck -20.041121 -7.090886 -15.798750
upperneck 24.655949 -9.065145 14.299120
head 12.639990 -3.823567 6.544296
rclavicle -0.000000 -0.000000
rhumerus -46.064259 9.735153 -98.603783
rradius 33.244530
rwrist -14.850110
rhand -30.318310 -33.245079
rfingers 7.837522
rthumb -1.059228 -66.220444
lclavicle -0.000000 -0.000000
lhumerus -51.529060 -3.677630 97.830925
lradius 21.547791
lwrist -5.356604
lhand -9.519752 -25.855169
lfingers 7.837522
lthumb 19.007120 6.321810
rfemur 9.719468 0.064314 23.331551
rtibia 37.634743
rfoot 15.476670 8.894006
rtoes -19.283880
lfemur -42.375629 2.822204 -25.422209
ltibia 37.852871
lfoot -4.319436 8.288896
ltoes 5.801653
430
root 11.409531 18.727390 27.244579 8.750214 -1.598157 -0.995235
lowerback -7.930593 2.953159 -1.501742
upperback -3.801589 4.014527 1.057139
thorax 0.352466 2.035132 2.217644
lowerneck -18.647310 -6.877255 -16.176380
upperneck 24.419119 -8.940141 14.738570
head 12.295031 -3.800038 6.805348
rclavicle -0.000000 -0.000000
rhumerus -47.536831 9.460045 -98.750961
rradius 33.094601
rwrist -14.482050
rhand -29.768421 -32.778458
rfingers 7.837522
rthumb -0.528221 -65.755585
lclavicle -0.000000 -0.000000
lhumerus -51.744553 -3.648073 97.695297
lradius 21.519190
lwrist -5.486679
lhand -10.346468 -26.641670
lfingers 7.837522
lthumb 18.211269 5.603444
rfemur 8.021013 0.016217 22.567381
rtibia 40.976208
rfoot 17.930439 6.040892
rtoes -12.399970
lfemur -41.492329 3.002813 -26.040409
ltibia 37.492840
lfoot -4.802292 8.344039
ltoes 6.713982
